<!-- Generator: Adobe Illustrator 17.0.0, SVG Export Plug-In  -->
<svg version="1.1"
	 xmlns="http://www.w3.org/2000/svg" xmlns:xlink="http://www.w3.org/1999/xlink" xmlns:a="http://ns.adobe.com/AdobeSVGViewerExtensions/3.0/"
	 x="0px" y="0px" width="116.746px" height="193.23px" viewBox="0 0 116.746 193.23"
	 style="enable-background:new 0 0 116.746 193.23;" xml:space="preserve">
<style type="text/css">
	.st0{fill:#0083FF;}
</style>
<defs>
</defs>
<path class="st0" d="M104.284,51.086c-4.758-0.951-8.597-1.268-10.722-1.364c-2.764,0-6.184-1.65-7.072-2.104
	c-0.046-0.168-0.094-0.335-0.142-0.502c1.282-1.016,3.866-3.864,5.396-6.593c1.823-3.25,4.601-7.638,6.975-9.045
	c2.374-1.407,4.011-2.316,6.158-3.006c-0.552-0.67-4.947-2.382-9.543-0.827c-4.597,1.555-8.079,3.2-9.967,4.18
	c-2.361,1.363-6.073,1.655-7.13,1.711c-0.134-0.132-0.273-0.26-0.409-0.39c0.601-1.54,1.404-5.27,1.365-8.378
	c-0.046-3.726,0.166-8.915,1.518-11.321c1.352-2.406,2.316-4.011,3.83-5.682c-0.813-0.305-5.475,0.41-8.678,4.055
	c-3.203,3.645-5.397,6.81-6.542,8.603c-1.345,2.331-4.353,4.415-5.283,5.024c-0.195-0.051-0.393-0.093-0.589-0.14
	c-0.259-1.649-1.425-5.253-3.002-7.908c-1.903-3.204-4.314-7.803-4.346-10.563s0-4.631,0.476-6.836
	c-0.856,0.143-4.536,3.093-5.488,7.851s-1.269,8.597-1.364,10.722c0,2.699-1.571,6.018-2.068,7.001
	c-0.194,0.054-0.388,0.108-0.581,0.165c-1.05-1.298-3.861-3.836-6.554-5.346c-3.25-1.822-7.638-4.6-9.046-6.974
	c-1.408-2.374-2.316-4.011-3.007-6.158c-0.67,0.552-2.382,4.947-0.826,9.543c1.556,4.596,3.2,8.079,4.181,9.967
	c1.365,2.364,1.656,6.082,1.712,7.134c-0.131,0.134-0.259,0.27-0.387,0.406c-1.538-0.601-5.271-1.405-8.381-1.366
	c-3.726,0.047-8.915-0.165-11.321-1.517c-2.406-1.352-4.011-2.315-5.683-3.83c-0.305,0.813,0.411,5.475,4.056,8.678
	c3.645,3.203,6.811,5.396,8.604,6.541c2.39,1.379,4.522,4.508,5.069,5.352c-0.043,0.169-0.078,0.341-0.118,0.511
	c-1.615,0.237-5.283,1.413-7.975,3.013c-3.204,1.904-7.803,4.315-10.563,4.347s-4.631,0-6.836-0.475
	c0.143,0.856,3.093,4.536,7.852,5.487c4.758,0.951,8.597,1.268,10.722,1.363c2.824,0,6.334,1.723,7.128,2.132
	c0.042,0.148,0.082,0.296,0.126,0.443c-1.268,0.988-3.889,3.867-5.435,6.624c-1.822,3.25-4.6,7.638-6.974,9.046
	c-2.374,1.407-4.011,2.316-6.158,3.006c0.552,0.67,4.947,2.382,9.543,0.826s8.079-3.2,9.967-4.181
	c2.513-1.452,6.557-1.689,7.298-1.721c0.096,0.093,0.193,0.184,0.29,0.276c-0.605,1.456-1.454,5.308-1.414,8.501
	c0.047,3.726-0.165,8.915-1.517,11.321c-1.352,2.406-2.315,4.011-3.83,5.682c0.813,0.305,5.475-0.411,8.678-4.056
	c3.203-3.645,5.397-6.811,6.542-8.604c1.459-2.528,4.872-4.766,5.471-5.146c0.124,0.032,0.251,0.057,0.376,0.087
	c0.199,1.555,1.392,5.33,3.028,8.083c1.904,3.204,4.315,7.803,4.347,10.563c0.032,2.76,0,4.631-0.475,6.836
	c0.856-0.143,4.536-3.093,5.487-7.851c0.951-4.758,1.268-8.597,1.363-10.722c0-2.929,1.85-6.591,2.169-7.199
	c0.122-0.034,0.245-0.069,0.367-0.104c0.951,1.248,3.87,3.919,6.663,5.485c3.25,1.823,7.638,4.601,9.046,6.975
	c1.408,2.374,2.316,4.011,3.006,6.158c0.67-0.552,2.382-4.947,0.826-9.543c-1.555-4.596-3.2-8.079-4.18-9.967
	c-1.449-2.509-1.687-6.543-1.72-7.295c0.094-0.096,0.186-0.195,0.279-0.292c1.458,0.605,5.307,1.453,8.498,1.413
	c3.726-0.047,8.915,0.165,11.321,1.517s4.011,2.315,5.682,3.83c0.305-0.813-0.411-5.475-4.056-8.678s-6.811-5.397-8.604-6.542
	c-2.431-1.403-4.599-4.622-5.1-5.399c0.039-0.152,0.071-0.306,0.109-0.458c1.594-0.223,5.3-1.405,8.016-3.018
	c3.204-1.904,7.803-4.314,10.563-4.346c2.76-0.032,4.631,0,6.836,0.476C111.993,55.717,109.043,52.037,104.284,51.086z"/>
<g>
	<g>
		<path class="st0" d="M31.333,157.193H10.802v21.208H0.109v-51.898H33.9v8.662H10.802v13.402h20.531V157.193z"/>
		<path class="st0" d="M71.419,159.474c0,2.804-0.326,5.406-0.979,7.806c-0.654,2.4-1.61,4.474-2.87,6.22
			c-1.26,1.747-2.821,3.119-4.687,4.117c-1.866,0.998-4.011,1.497-6.435,1.497c-2.044,0-3.844-0.356-5.399-1.069
			c-1.557-0.713-2.905-1.711-4.046-2.994v18.179H36.703v-53.396h9.553l0.355,3.778c1.188-1.426,2.572-2.531,4.153-3.315
			c1.58-0.784,3.451-1.176,5.614-1.176c2.446,0,4.609,0.47,6.486,1.408c1.877,0.939,3.445,2.27,4.705,3.992
			c1.26,1.723,2.216,3.791,2.87,6.202c0.653,2.412,0.979,5.079,0.979,8.002V159.474z M61.119,158.726
			c0-1.592-0.137-3.071-0.41-4.438c-0.273-1.366-0.707-2.554-1.301-3.564c-0.595-1.01-1.36-1.8-2.299-2.371
			c-0.939-0.57-2.086-0.855-3.439-0.855c-1.688,0-3.072,0.315-4.153,0.945c-1.081,0.63-1.919,1.55-2.513,2.762v15.791
			c0.594,1.188,1.432,2.121,2.513,2.798c1.081,0.678,2.489,1.016,4.224,1.016c1.355,0,2.501-0.297,3.44-0.891
			c0.938-0.594,1.698-1.408,2.281-2.441c0.582-1.034,1.003-2.24,1.265-3.618c0.262-1.378,0.393-2.839,0.393-4.384V158.726z"/>
		<path class="st0" d="M93.078,165.534l11.763-39.031h11.905l-18.072,51.898H87.517l-18-51.898h11.869L93.078,165.534z"/>
	</g>
</g>
</svg>
